<?xml version="1.0" encoding="utf-8"?>
<!-- Generator: Adobe Illustrator 19.0.0, SVG Export Plug-In . SVG Version: 6.00 Build 0)  -->
<svg version="1.1" id="Layer_1" xmlns="http://www.w3.org/2000/svg" xmlns:xlink="http://www.w3.org/1999/xlink" x="0px" y="0px"
	 viewBox="0 0 375.4 74.5" style="enable-background:new 0 0 375.4 74.5;" xml:space="preserve">
<g id="XMLID_24_">
	<path id="XMLID_56_" d="M-369.6,1.5c-19.9,0-36,16.1-36,36c0,19.9,16.1,36,36,36c19.9,0,36-16.1,36-36
		C-333.6,17.6-349.7,1.5-369.6,1.5z M-369.6,70.6c-18.3,0-33.1-14.9-33.1-33.1c0-18.3,14.9-33.1,33.1-33.1
		c18.3,0,33.1,14.9,33.1,33.1C-336.5,55.8-351.3,70.6-369.6,70.6z"/>
	<polygon id="XMLID_57_" points="-368.2,16.8 -371,16.8 -371,36.1 -390.3,36.1 -390.3,38.9 -371,38.9 -371,58.2 -368.2,58.2 
		-368.2,38.9 -348.9,38.9 -348.9,36.1 -368.2,36.1 	"/>
</g>
<polygon id="XMLID_445_" points="-368.2,97.4 -371,97.4 -371,116.6 -390.3,116.6 -390.3,119.5 -371,119.5 -371,138.8 -368.2,138.8 
	-368.2,119.5 -348.9,119.5 -348.9,116.6 -368.2,116.6 "/>
<path id="XMLID_122_" d="M-289.2,1c-19.9,0-36,16.1-36,36c0,19.9,16.1,36,36,36c19.9,0,36-16.1,36-36C-253.2,17.1-269.3,1-289.2,1z
	 M-289.2,70.1c-18.3,0-33.1-14.9-33.1-33.1c0-18.3,14.9-33.1,33.1-33.1c18.3,0,33.1,14.9,33.1,33.1C-256,55.3-270.9,70.1-289.2,70.1
	z"/>
<rect id="XMLID_121_" x="-309.9" y="35.6" width="41.4" height="2.9"/>
<rect id="XMLID_501_" x="-309.9" y="116.6" width="41.4" height="2.9"/>
<path id="XMLID_153_" d="M-209.5,1.5c-19.9,0-36,16.1-36,36c0,19.9,16.1,36,36,36c19.9,0,36-16.1,36-36
	C-173.5,17.6-189.6,1.5-209.5,1.5z M-209.5,70.6c-18.3,0-33.1-14.9-33.1-33.1c0-18.3,14.9-33.1,33.1-33.1
	c18.3,0,33.1,14.9,33.1,33.1C-176.3,55.8-191.2,70.6-209.5,70.6z"/>
<path id="XMLID_184_" d="M-127.9,1.5c-19.9,0-36,16.1-36,36c0,19.9,16.1,36,36,36c19.9,0,36-16.1,36-36
	C-91.9,17.6-108,1.5-127.9,1.5z M-127.9,70.6c-18.3,0-33.1-14.9-33.1-33.1c0-18.3,14.9-33.1,33.1-33.1c18.3,0,33.1,14.9,33.1,33.1
	C-94.8,55.8-109.6,70.6-127.9,70.6z"/>
<path id="XMLID_215_" d="M-45.9,1.5c-19.9,0-36,16.1-36,36c0,19.9,16.1,36,36,36c19.9,0,36-16.1,36-36C-9.9,17.6-26,1.5-45.9,1.5z
	 M-45.9,70.6C-64.2,70.6-79,55.8-79,37.5c0-18.3,14.9-33.1,33.1-33.1c18.3,0,33.1,14.9,33.1,33.1C-12.8,55.8-27.6,70.6-45.9,70.6z"
	/>
<g id="XMLID_39_">
	<g id="XMLID_42_">
		
			<rect id="XMLID_43_" x="-209.2" y="16.2" transform="matrix(0.7071 -0.7071 0.7071 0.7071 -81.5459 -138.3078)" width="2.9" height="26.1"/>
	</g>
	<g id="XMLID_40_">
		
			<rect id="XMLID_41_" x="-209.2" y="32.7" transform="matrix(-0.7071 -0.7071 0.7071 -0.7071 -386.938 -68.8354)" width="2.9" height="26.1"/>
	</g>
</g>
<g id="XMLID_544_">
	<g id="XMLID_547_">
		
			<rect id="XMLID_548_" x="-209.2" y="96.8" transform="matrix(0.7071 -0.7071 0.7071 0.7071 -138.5075 -114.7136)" width="2.9" height="26.1"/>
	</g>
	<g id="XMLID_545_">
		
			<rect id="XMLID_546_" x="-209.2" y="113.2" transform="matrix(-0.7071 -0.7071 0.7071 -0.7071 -443.8996 68.682)" width="2.9" height="26.1"/>
	</g>
</g>
<g id="XMLID_367_">
	<g id="XMLID_370_">
		
			<rect id="XMLID_371_" x="-127.9" y="32.7" transform="matrix(-0.7071 0.7071 -0.7071 -0.7071 -183.5696 167.4765)" width="2.9" height="26.1"/>
	</g>
	<g id="XMLID_368_">
		
			<rect id="XMLID_369_" x="-127.9" y="16.2" transform="matrix(0.7071 0.7071 -0.7071 0.7071 -16.3377 98.0041)" width="2.9" height="26.1"/>
	</g>
</g>
<g id="XMLID_591_">
	<g id="XMLID_594_">
		
			<rect id="XMLID_595_" x="-127.9" y="113.2" transform="matrix(-0.7071 0.7071 -0.7071 -0.7071 -126.608 304.994)" width="2.9" height="26.1"/>
	</g>
	<g id="XMLID_592_">
		
			<rect id="XMLID_593_" x="-127.9" y="96.8" transform="matrix(0.7071 0.7071 -0.7071 0.7071 40.6238 121.5984)" width="2.9" height="26.1"/>
	</g>
</g>
<title>Found</title>
<description>Created with Sketch (http://www.bohemiancoding.com/sketch)</description>
<path id="XMLID_28_" d="M-37.6,40.6c1.7-2.4,2.7-5.3,2.7-8.5c0-8-6.3-14.4-14.2-14.4c-7.8,0-14.2,6.4-14.2,14.4
	c0,8,6.3,14.4,14.2,14.4c3.4,0,6.6-1.2,9-3.3l11.8,12l2.5-2.5L-37.6,40.6z M-49.1,42.9c-5.9,0-10.6-4.8-10.6-10.8
	c0-6,4.8-10.8,10.6-10.8c5.9,0,10.6,4.8,10.6,10.8C-38.4,38.1-43.2,42.9-49.1,42.9z"/>
<path id="XMLID_638_" d="M-37.6,121.7c1.7-2.4,2.7-5.3,2.7-8.5c0-8-6.3-14.4-14.2-14.4c-7.8,0-14.2,6.4-14.2,14.4
	c0,8,6.3,14.4,14.2,14.4c3.4,0,6.6-1.2,9-3.3l11.8,12l2.5-2.5L-37.6,121.7z M-49.1,124c-5.9,0-10.6-4.8-10.6-10.8
	c0-6,4.8-10.8,10.6-10.8c5.9,0,10.6,4.8,10.6,10.8C-38.4,119.2-43.2,124-49.1,124z"/>
<g id="Logo_Lockup_and_Clearspace_1_">
	<g id="Logo_Lockup">
		<path id="Fannie_Mae" d="M100,55.1v-3.3h5.1V22.3H100V19h27.7v10.9h-3.8v-7.6h-14.4v13.4h7.2v-5.3h3.5v14h-3.5V39h-7.2v12.7h6V55
			L100,55.1L100,55.1z M145.6,49.9c-1.8,3.9-4.3,5.5-8.6,5.5c-3.7,0-7.2-1.6-8.2-5.5c-0.3-1.3-0.3-2.1-0.3-2.5c0-5.9,4.8-8.2,10-8.2
			c1,0,1.9,0,2.9,0h4.1v-2.4c-0.2-1.9-0.4-3-1.8-4.4c-1-1-2.6-1.4-3.9-1.4c-2.2,0-3.7,0.3-5.2,2.1c-0.7,0.9-0.9,2.1-1,3.1h-4.2
			c0.2-3.8,2.1-6.5,5.7-7.7c1.5-0.5,2.9-0.6,4.5-0.6c2.8,0,5,0.5,7.2,2.3c2.1,1.7,2.5,4,2.5,6.5v15.1h4.2V55h-8v-5.1H145.6z
			 M137.5,52.4c6,0,8-5,8.1-10.1c-1.3-0.2-2.8-0.2-4-0.2c-4,0-8.7,0.2-8.7,5.4C132.9,50.4,134.5,52.4,137.5,52.4z M164.8,33.5
			c1.4-3.8,3.8-5.5,8-5.5c4,0,6.7,1.7,8,5.5c0.2,1.2,0.2,2.2,0.2,3.4v15h4.1v3.2h-12.3v-3.2h4.1V38.3c0-3.6-0.8-7.1-5.2-7.1
			c-1.6,0-2.3,0-3.6,0.9c-1.1,0.7-1.7,1.5-2.2,2.6c-1.1,2.1-1.1,4.5-1.1,6.7v10.5h4.1v3.2h-12.6v-3.2h4.4V31.7h-4.3v-3h8.4
			L164.8,33.5L164.8,33.5z M196.3,33.5c1.4-3.8,3.8-5.5,8-5.5c4,0,6.7,1.7,8,5.5c0.2,1.2,0.2,2.2,0.2,3.4v15h4.1v3.2h-12.3v-3.2h4.1
			V38.3c0-3.6-0.8-7.1-5.2-7.1c-1.6,0-2.3,0-3.6,0.9c-1.1,0.7-1.7,1.5-2.2,2.6c-1.1,2.1-1.1,4.5-1.1,6.7v10.5h4.1v3.2h-12.6v-3.2
			h4.4V31.7h-4.3v-3h8.4L196.3,33.5L196.3,33.5z M231.5,55.1h-12.4v-3.2h4.2V31.7h-4.2v-3h8.3v23.1h4.1V55.1z M227.7,19v4.2H223V19
			H227.7z M257.9,42.7h-19.6c0.2,2.6,0.6,5,2.3,7c1.8,2.1,3.5,2.6,6.3,2.6c3.2,0,6.3-2.4,6.7-5.5h3.9c-1,5.7-5.5,8.6-11.3,8.6
			c-8.6,0-12.2-5.7-12.2-13.5c0-2.8,0.6-5.8,2-8.3c2-3.6,6.2-5.6,10.3-5.6c2.4,0,5.3,0.8,7.2,2.3c2.1,1.7,3.3,4,3.8,6.5
			c0.4,1.9,0.6,3.3,0.6,5.2L257.9,42.7L257.9,42.7z M253.6,39.7c-0.1-4.2-2.4-8.7-7.3-8.7s-7.4,4.4-7.7,8.7H253.6z M272.7,55.1v-3.3
			h5.2V22.3h-5.2V19h12.8l9.3,30.8l9.6-30.8h12.7v3.3H312v29.4h5.1V55h-14v-3.3h4.6V22.3h-0.4L296.6,55h-3.9L282,22.3h-0.4v29.4h4.7
			V55L272.7,55.1L272.7,55.1z M336.4,49.9c-1.8,3.9-4.3,5.5-8.6,5.5c-3.7,0-7.2-1.6-8.2-5.5c-0.3-1.3-0.3-2.1-0.3-2.5
			c0-5.9,4.8-8.2,10-8.2c1,0,1.9,0,2.9,0h4.1v-2.4c-0.2-1.9-0.4-3-1.8-4.4c-1-1-2.6-1.4-3.9-1.4c-2.2,0-3.7,0.3-5.2,2.1
			c-0.7,0.9-0.9,2.1-1,3.1h-4.2c0.2-3.8,2.1-6.5,5.7-7.7c1.5-0.5,2.9-0.6,4.5-0.6c2.8,0,5,0.5,7.2,2.3c2.1,1.7,2.5,4,2.5,6.5v15.1
			h4.2V55h-8L336.4,49.9L336.4,49.9z M328.3,52.4c6,0,8-5,8.1-10.1c-1.3-0.2-2.8-0.2-4-0.2c-4,0-8.7,0.2-8.7,5.4
			C323.7,50.4,325.3,52.4,328.3,52.4z M370,42.7h-19.4c0.2,2.6,0.6,5,2.3,7c1.8,2.1,3.5,2.6,6.2,2.6c3.2,0,6.2-2.4,6.6-5.5h3.9
			c-1,5.7-5.5,8.6-11.2,8.6c-8.6,0-12.1-5.7-12.1-13.5c0-2.8,0.6-5.8,2-8.3c2-3.6,6.1-5.6,10.2-5.6c2.4,0,5.3,0.8,7.1,2.3
			c2.1,1.7,3.2,4,3.7,6.5c0.4,1.9,0.6,3.3,0.6,5.2L370,42.7L370,42.7z M365.7,39.7c-0.1-4.2-2.4-8.7-7.2-8.7c-4.9,0-7.3,4.4-7.7,8.7
			H365.7z"/>
		<path id="Symbol_6_" d="M37,3.9c18.3,0,33.1,14.9,33.1,33.1c0,18.3-14.9,33.1-33.1,33.1C18.7,70.1,3.9,55.2,3.9,37
			C3.9,18.7,18.7,3.9,37,3.9 M37,1C17.1,1,1,17.1,1,37s16.1,36,36,36s36-16.1,36-36S56.9,1,37,1L37,1z M49.6,12.2l-19.1,6.6V14H22
			v7.8L15.2,24L8.6,39c0.1,0.2,0.7,4,0.7,4c3.3-0.9,6.7-1.3,10.3-1.3c14.6,0,27.4,7.9,34.3,19.6l1.9-1.2c-1.2-2-2.5-3.9-4-5.6V41.8
			l-8.4-1.5v6.6c-5.9-4.1-12.9-6.7-20.5-7.2C34.6,36.2,44.3,27.9,49.3,17l9.9,22.7l2.6,0.5L49.6,12.2z M45.6,42.9l4,0.7V52
			c-1.3-1.3-2.6-2.5-4-3.6V42.9z M10.9,39.3l5.9-13.5l7.3-2.5v-7.2h4.1v5.7l19.3-6.7C41.5,29.3,27.2,39,10.9,39.3z M47.7,30.8
			l1.9,0.3V35l-1.9-0.3V30.8 M45.5,28.2v8.3l6.3,1.1v-8.3L45.5,28.2L45.5,28.2z"/>
	</g>
</g>
</svg>
