<?xml version="1.0" encoding="utf-8"?>

<svg version="1.1" id="Layer_12" xmlns="http://www.w3.org/2000/svg" xmlns:xlink="http://www.w3.org/1999/xlink" x="-602px" y="364px"
	 viewBox="-602 364 74 74" style="enable-background:new -602 364 74 74;" xml:space="preserve">
<path id="XMLID_290_" d="M-565,365c-19.9,0-36,16.1-36,36s16.1,36,36,36s36-16.1,36-36S-545.1,365-565,365z M-565,434.1
	c-18.3,0-33.1-14.8-33.1-33.1s14.8-33.1,33.1-33.1s33.1,14.9,33.1,33.1C-531.9,419.3-546.7,434.1-565,434.1z"/>
<path d="M-571.5,425.8c-3.4,0-6.1-2.7-6.1-6.1s2.7-6.1,6.1-6.1c0.5,0,1,0.1,1.5,0.2l2.4-4.3c-2.2-1.7-3.4-4.3-3.4-7.1
	c0-1.9,0.6-3.7,1.7-5.3l-4.1-4.1c-1.3,0.8-2.8,1.3-4.2,1.3c-4.2,0-7.6-3.4-7.6-7.6s3.4-7.6,7.6-7.6s7.6,3.4,7.6,7.6
	c0,1.5-0.4,2.9-1.3,4.2l4.1,4.1c1.6-1.1,3.4-1.7,5.3-1.7c3.6,0,6.8,2.1,8.4,5.4l6-1.6c0.2-2.4,2.2-4.2,4.6-4.2
	c2.5,0,4.6,2.1,4.6,4.6c0,2.5-2.1,4.6-4.6,4.6c-1.5,0-2.9-0.8-3.7-2l-6,1.6c0,0.3,0.1,0.6,0.1,0.9c0,5.1-4.1,9.2-9.2,9.2
	c-1,0-2.1-0.2-3.1-0.5l-2.4,4.3c1.2,1.2,1.9,2.8,1.9,4.4C-565.4,423.1-568.2,425.8-571.5,425.8z"/>
</svg>
