<?xml version="1.0" encoding="utf-8"?>
<!-- Generator: Adobe Illustrator 19.0.0, SVG Export Plug-In . SVG Version: 6.00 Build 0)  -->
<svg version="1.1" id="Layer_12" xmlns="http://www.w3.org/2000/svg" xmlns:xlink="http://www.w3.org/1999/xlink" x="0px" y="0px"
	 viewBox="0 0 74 74" style="enable-background:new 0 0 74 74;" xml:space="preserve">
<rect id="XMLID_594_" x="35" y="32.2" transform="matrix(-0.7071 0.7071 -0.7071 -0.7071 94.1652 51.435)" width="2.9" height="26.1"/>

<g id="arrow-left-circle">
	<path id="XMLID_591_" d="M37,1C17.1,1,1,17.1,1,37c0,19.9,16.1,36,36,36c19.9,0,36-16.1,36-36C73,17.1,56.9,1,37,1z M37,70.1
		C18.7,70.1,3.9,55.3,3.9,37C3.9,18.7,18.7,3.9,37,3.9c18.3,0,33.1,14.9,33.1,33.1C70.1,55.3,55.3,70.1,37,70.1z"/>
	
		<rect id="XMLID_590_" x="35" y="15.7" transform="matrix(-0.7071 -0.7071 0.7071 -0.7071 41.839 74.8916)" width="2.9" height="26.1"/>
</g>

<g id="arrow-left">
    <rect id="XMLID_590_" x="-567.1" y="379.7" transform="matrix(0.7071 0.7071 -0.7071 0.7071 112.0815 514.9888)" width="2.9" height="26.1"/>
</g>

<g id="arrow-right-circle">
  <path id="XMLID_522_" d="M37,1C17.1,1,1,17.1,1,37c0,19.9,16.1,36,36,36c19.9,0,36-16.1,36-36C73,17.1,56.9,1,37,1z M37,70.1
    C18.7,70.1,3.9,55.3,3.9,37C3.9,18.7,18.7,3.9,37,3.9c18.3,0,33.1,14.9,33.1,33.1C70.1,55.3,55.3,70.1,37,70.1z"/>
  <polygon id="XMLID_521_" points="30.5,18.5 28.5,20.6 44.9,37 28.5,53.4 30.5,55.5 49,37 49,37 49,37  "/>
</g>

<g id="arrow-right">
  <polygon id="XMLID_521_" points="-571.5,382.5 -573.5,384.6 -557.1,401 -573.5,417.4 -571.5,419.5 -553,401 -553,401 -553,401  "/>
</g>

<g id="minus-circle">
  <path id="XMLID_452_" d="M37,1C17.1,1,1,17.1,1,37c0,19.9,16.1,36,36,36c19.9,0,36-16.1,36-36C73,17.1,56.9,1,37,1z M37,70.1
    C18.7,70.1,3.9,55.3,3.9,37C3.9,18.7,18.7,3.9,37,3.9c18.3,0,33.1,14.9,33.1,33.1C70.1,55.3,55.3,70.1,37,70.1z"/>
  <rect id="XMLID_451_" x="16.3" y="35.6" width="41.4" height="2.9"/>
</g>

<g id="minus">
  <rect id="XMLID_451_" x="-585.7" y="399.6" width="41.4" height="2.9"/>
</g>

<g id="plus-circle">
  <path id="XMLID_290_" d="M37,1C17.1,1,1,17.1,1,37c0,19.9,16.1,36,36,36c19.9,0,36-16.1,36-36C73,17.1,56.9,1,37,1z M37,70.1
    C18.7,70.1,3.9,55.3,3.9,37C3.9,18.7,18.7,3.9,37,3.9c18.3,0,33.1,14.9,33.1,33.1C70.1,55.3,55.3,70.1,37,70.1z"/>
  <polygon id="XMLID_289_" points="38.4,16.3 35.6,16.3 35.6,35.6 16.3,35.6 16.3,38.4 35.6,38.4 35.6,57.7 38.4,57.7 38.4,38.4 
    57.7,38.4 57.7,35.6 38.4,35.6   "/>
</g>

<g id="plus">
  <polygon id="XMLID_289_" points="-563.6,380.3 -566.4,380.3 -566.4,399.6 -585.7,399.6 -585.7,402.4 -566.4,402.4 -566.4,421.7 
    -563.6,421.7 -563.6,402.4 -544.3,402.4 -544.3,399.6 -563.6,399.6  "/>
</g>

<g id="search-circle">
  <path id="XMLID_649_" d="M37,1C17.1,1,1,17.1,1,37c0,19.9,16.1,36,36,36c19.9,0,36-16.1,36-36C73,17.1,56.9,1,37,1z M37,70.1
    C18.7,70.1,3.9,55.3,3.9,37C3.9,18.7,18.7,3.9,37,3.9c18.3,0,33.1,14.9,33.1,33.1C70.1,55.3,55.3,70.1,37,70.1z"/>
  <path id="XMLID_646_" d="M48,31.6c0-8-6.3-14.4-14.2-14.4c-7.8,0-14.2,6.4-14.2,14.4c0,8,6.3,14.4,14.2,14.4c3.4,0,6.6-1.2,9-3.3
    l11.8,12l2.5-2.5l-11.8-12C47,37.7,48,34.8,48,31.6z M33.8,42.4c-5.9,0-10.6-4.8-10.6-10.8c0-6,4.8-10.8,10.6-10.8
    c5.9,0,10.6,4.8,10.6,10.8C44.5,37.6,39.7,42.4,33.8,42.4z"/>
</g>

<g id="search">
  <path id="XMLID_646_" d="M-554,395.6c0-8-6.3-14.4-14.2-14.4c-7.8,0-14.2,6.4-14.2,14.4s6.3,14.4,14.2,14.4c3.4,0,6.6-1.2,9-3.3
    l11.8,12l2.5-2.5l-11.8-12C-555,401.7-554,398.8-554,395.6z M-568.2,406.4c-5.9,0-10.6-4.8-10.6-10.8s4.8-10.8,10.6-10.8
    c5.9,0,10.6,4.8,10.6,10.8C-557.5,401.6-562.3,406.4-568.2,406.4z"/>
</g>

<g id="pause-circle">
  <path id="XMLID_591_" d="M-565,365c-19.9,0-36,16.1-36,36s16.1,36,36,36s36-16.1,36-36S-545.1,365-565,365z M-565,434.1
    c-18.3,0-33.1-14.8-33.1-33.1s14.8-33.1,33.1-33.1s33.1,14.9,33.1,33.1C-531.9,419.3-546.7,434.1-565,434.1z"/>
</g>

<g id="play-circle">
  <path id="XMLID_591_" d="M-565,365c-19.9,0-36,16.1-36,36s16.1,36,36,36s36-16.1,36-36S-545.1,365-565,365z M-565,434.1
    c-18.3,0-33.1-14.8-33.1-33.1s14.8-33.1,33.1-33.1s33.1,14.9,33.1,33.1C-531.9,419.3-546.7,434.1-565,434.1z"/>
</g>
</svg>
